<?xml version="1.0" encoding="UTF-8" standalone="no"?>
<!-- Created with Inkscape (http://www.inkscape.org/) -->

<svg
   width="170.755mm"
   height="50mm"
   viewBox="0 0 170.755 50"
   version="1.1"
   id="svg1"
   xml:space="preserve"
   inkscape:version="1.4.4 (dcaf3e7d9e, 2026-05-05)"
   sodipodi:docname="octano_logo.svg"
   xmlns:inkscape="http://www.inkscape.org/namespaces/inkscape"
   xmlns:sodipodi="http://sodipodi.sourceforge.net/DTD/sodipodi-0.dtd"
   xmlns="http://www.w3.org/2000/svg"
   xmlns:svg="http://www.w3.org/2000/svg"><sodipodi:namedview
     id="namedview1"
     pagecolor="#ffffff"
     bordercolor="#000000"
     borderopacity="0.25"
     inkscape:showpageshadow="2"
     inkscape:pageopacity="0.0"
     inkscape:pagecheckerboard="0"
     inkscape:deskcolor="#d1d1d1"
     inkscape:document-units="mm"
     inkscape:zoom="0.21870441"
     inkscape:cx="484.67245"
     inkscape:cy="775.01868"
     inkscape:window-width="1299"
     inkscape:window-height="699"
     inkscape:window-x="0"
     inkscape:window-y="0"
     inkscape:window-maximized="1"
     inkscape:current-layer="layer1" /><defs
     id="defs1" /><g
     inkscape:label="Layer 1"
     inkscape:groupmode="layer"
     id="layer1"><path
       style="fill:#fefefe;stroke-width:0.749995"
       d="M 15.870171,46.386333 7.2267789,42.791405 3.6135582,34.049194 C 1.6262891,29.240968 1.8751494e-4,25.173033 1.6198053e-8,25.009317 -1.8748254e-4,24.845608 1.6274291,20.77687 3.6169332,15.967678 L 7.2342038,7.2236964 15.973108,3.6118482 C 20.779495,1.6253291 24.845945,0 25.009654,0 c 0.163717,0 4.231779,1.6259966 9.040155,3.6133332 l 8.742496,3.6133407 3.61334,8.7424961 c 1.987337,4.808375 3.613491,8.876438 3.613679,9.040147 1.87e-4,0.163716 -1.627437,4.232454 -3.616934,9.041646 l -3.617278,8.743982 -8.738903,3.611855 c -4.806396,1.986512 -8.917493,3.603434 -9.135772,3.593151 -0.218278,-0.01028 -4.286401,-1.636414 -9.040266,-3.613618 z m 10.516902,-16.72869 c 2.333009,-0.69283 3.909941,-3.273345 3.398069,-5.560635 -0.432957,-1.934665 -1.937334,-3.432187 -3.885971,-3.868272 -3.187321,-0.71329 -6.380515,2.495631 -5.664997,5.692897 0.39911,1.783398 1.718388,3.221101 3.453847,3.763857 1.101067,0.344353 1.458125,0.340671 2.699052,-0.02782 z m -8.387869,-3.337425 c 0.787067,-0.677013 0.787067,-1.944789 0,-2.621795 -0.550721,-0.473712 -0.566036,-0.475032 -5.517353,-0.475032 H 7.5167494 l -0.5800461,0.580046 c -0.3958773,0.395878 -0.5800461,0.77875 -0.5800461,1.20588 0,0.427137 0.1841688,0.810002 0.5800461,1.205887 l 0.5800461,0.580038 h 4.9651016 c 4.951317,0 4.966632,-0.0015 5.517353,-0.475024 z m 25.083409,-0.105014 c 0.77986,-0.77986 0.77986,-1.631907 0,-2.411767 l -0.580039,-0.580046 h -4.965109 c -4.951317,0 -4.966639,0.0015 -5.51736,0.475032 -0.441462,0.37973 -0.552252,0.642723 -0.552252,1.310894 0,0.668178 0.11079,0.931171 0.552252,1.310901 0.550721,0.473712 0.566043,0.475024 5.51736,0.475024 h 4.965109 z m 11.494032,6.731564 v -8.929627 h 1.587492 1.587492 v 0.909826 0.909827 l 0.921946,-0.811532 c 0.949389,-0.835682 2.391097,-1.404996 3.557976,-1.404996 0.350691,0 1.22412,0.181154 1.940965,0.402567 1.007716,0.311248 1.531392,0.624679 2.308679,1.381776 1.027868,1.001176 1.969667,2.685702 1.997867,3.573434 0.01155,0.362585 0.09025,0.255778 0.292558,-0.396875 1.276379,-4.117608 5.166498,-6.015785 8.742834,-4.266047 0.584906,0.286169 1.244196,0.750063 1.465092,1.030884 l 0.401623,0.510581 V 24.93686 24.017141 h 1.587491 1.587485 v 6.64761 6.647618 H 80.96866 79.381169 V 36.495077 35.677785 L 78.7576,36.287441 c -0.988133,0.966083 -1.881347,1.302434 -3.680757,1.386043 -1.405033,0.06525 -1.770619,0.0091 -2.696052,-0.41462 -1.773573,-0.811967 -3.202816,-2.591375 -3.616386,-4.502407 l -0.148544,-0.686403 -0.343603,1.110518 c -0.883306,2.854848 -3.108789,4.533029 -5.999832,4.524307 -1.585227,-0.0045 -2.585952,-0.351043 -3.677443,-1.272434 l -0.64492,-0.544414 v 2.994183 2.994182 h -1.686709 -1.686709 z m 8.482263,1.480708 c 1.496533,-0.625293 2.27298,-1.876742 2.27298,-3.6635 0,-2.983188 -2.705044,-4.827208 -5.263974,-3.588449 -2.219926,1.074646 -2.852884,4.212384 -1.231777,6.106279 1.193339,1.394151 2.669524,1.794656 4.222771,1.14567 z m 14.525768,-0.381987 c 1.678908,-1.163483 2.170035,-3.639366 1.073685,-5.412677 -1.974422,-3.193546 -6.506619,-2.036146 -6.779122,1.731206 -0.04582,0.633401 0.01905,1.461763 0.144142,1.840803 0.284,0.860522 1.48037,2.078281 2.285039,2.325892 1.039501,0.319873 2.406697,0.117381 3.276256,-0.485224 z m 5.566777,6.441856 v -1.38905 l 1.53788,-0.0045 c 1.766808,-0.0052 2.151503,-0.212834 2.800556,-1.5125 l 0.410705,-0.822385 -2.559913,-6.321317 -2.559913,-6.321318 1.698596,-0.05767 c 0.934224,-0.03172 1.732661,-0.02362 1.774293,0.018 0.200512,0.200503 3.244921,8.226589 3.251664,8.572449 0.0067,0.331281 2.067578,-4.831715 3.111181,-7.793325 l 0.298836,-0.848056 3.303547,0.0543 3.303548,0.0543 0.05947,0.708655 0.05947,0.708655 0.693387,-0.65395 c 0.71993,-0.678978 2.26614,-1.259452 3.35482,-1.259452 1.66154,0 3.80528,1.241047 4.1793,2.419461 0.1037,0.326728 0.22736,0.255156 0.92134,-0.533246 1.19515,-1.357768 2.13001,-1.780818 3.92821,-1.777638 1.79589,0.003 2.95186,0.542734 3.80615,1.776565 0.95356,1.377186 1.15476,2.680955 1.15476,7.483045 v 4.323909 h -1.57044 -1.57044 l -0.0675,-4.216772 c -0.0583,-3.640386 -0.11851,-4.319679 -0.44068,-4.969647 -0.98172,-1.980601 -3.67296,-1.736665 -4.8193,0.436827 -0.43785,0.830162 -0.46126,1.074466 -0.46126,4.812073 v 3.937519 h -1.68671 -1.68671 l -7.5e-4,-4.018338 c -6.2e-4,-2.210078 -0.0925,-4.347451 -0.20425,-4.749711 -0.11172,-0.40226 -0.48661,-0.969908 -0.83308,-1.261439 -0.55537,-0.467322 -0.75813,-0.519439 -1.71284,-0.440262 -0.9543,0.07913 -1.17057,0.183794 -1.82121,0.881312 -0.989308,1.06059 -1.182169,2.076091 -1.182169,6.224785 v 3.363653 h -1.587484 -1.587492 l -0.0091,-6.498789 -0.0091,-6.498782 -2.849688,7.094548 c -1.567325,3.901999 -3.081205,7.489599 -3.36417,7.972446 -1.09899,1.875288 -2.430974,2.494603 -5.365209,2.494603 H 83.151761 Z M 122.6471,37.272207 c -1.32495,-0.508639 -2.90195,-2.026029 -3.56732,-3.432472 -0.57463,-1.214647 -0.76665,-3.566166 -0.41194,-5.044766 0.30924,-1.289046 1.37696,-2.906673 2.46373,-3.73262 1.27196,-0.966684 2.3645,-1.304339 4.28679,-1.324859 1.46281,-0.0156 1.8353,0.05497 2.80618,0.531754 1.23819,0.608059 2.50178,1.85677 3.1351,3.098192 0.42687,0.836724 0.75366,2.687487 0.64354,3.644578 l -0.0628,0.545704 h -5.04694 c -5.63708,0 -5.39572,-0.07253 -4.64615,1.396738 0.59299,1.16235 1.683,1.806588 3.05666,1.806588 1.22827,0 2.38102,-0.545239 2.59798,-1.228815 0.11037,-0.347757 0.31302,-0.387019 1.99727,-0.387019 h 1.87443 l -0.30878,0.74413 c -0.65109,1.569064 -2.43881,3.173911 -4.02696,3.615013 -1.24197,0.344952 -3.58302,0.231508 -4.7908,-0.232146 z m 5.94623,-8.511573 c 0,-0.474769 -0.89762,-1.43627 -1.66707,-1.785715 -1.60187,-0.727488 -3.69541,-0.237231 -4.47961,1.049018 -0.22012,0.361047 -0.40056,0.723422 -0.40097,0.805277 -4e-4,0.08185 1.47265,0.148829 3.27346,0.148829 2.24102,0 3.27419,-0.06863 3.27419,-0.217409 z m 29.86049,8.672034 c -1.11409,-0.3491 -1.84564,-0.868689 -2.5054,-1.779453 l -0.56621,-0.78163 v 1.220392 1.220392 h -2.07066 c -2.84416,0 -3.62267,-0.35711 -4.54227,-2.083583 -0.3788,-0.711191 -0.43032,-1.180702 -0.49536,-4.514423 l -0.0726,-3.72068 h -1.37047 -1.37046 v -1.488275 -1.488267 h 1.38906 1.38905 v -1.885142 -1.88515 h 1.68671 1.68671 v 1.88515 1.885142 h 1.88514 1.88514 v 1.488267 1.488275 h -1.88514 -1.88514 v 3.263131 c 0,3.119319 0.0201,3.28653 0.45659,3.793962 0.39377,0.457782 0.6502,0.544676 1.8636,0.631496 l 1.407,0.100664 -0.10348,-0.918084 -0.10348,-0.918084 h 1.61329 c 1.47674,0 1.6133,0.0333 1.6133,0.39374 0,0.216561 0.24846,0.671823 0.55214,1.011691 0.42354,0.474027 0.76741,0.642213 1.47646,0.722133 1.67787,0.189126 2.73387,-0.400963 2.73387,-1.52768 0,-0.799937 -0.53319,-1.111875 -2.69404,-1.57613 -2.24687,-0.482741 -2.82721,-0.707972 -3.52481,-1.367998 -0.85278,-0.806867 -1.12329,-1.484322 -1.12329,-2.813148 0,-1.409316 0.48403,-2.532493 1.36023,-3.156399 0.6692,-0.476517 2.57563,-1.012711 3.60068,-1.012711 1.17192,0 3.03039,0.575899 3.77028,1.168335 0.84177,0.67399 1.57979,1.909239 1.58423,2.651562 l 0.003,0.545696 -1.53788,-0.0015 c -1.50096,-0.0015 -1.54602,-0.01553 -1.87694,-0.597101 -0.86317,-1.516857 -3.72888,-1.201957 -3.72888,0.409753 0,0.778742 0.57598,1.120897 2.50147,1.485972 3.84433,0.728875 5.04609,1.732083 5.03474,4.202867 -0.009,1.901132 -1.15192,3.357742 -3.09399,3.942213 -1.13849,0.342635 -3.85528,0.345028 -4.94247,0.0045 z m 9.09819,-0.198456 c -0.44147,-0.379737 -0.55226,-0.642723 -0.55226,-1.310901 0,-0.668178 0.11079,-0.931164 0.55226,-1.310894 1.38301,-1.189619 3.50547,-0.0089 3.16698,1.761896 -0.2446,1.279491 -2.09506,1.781928 -3.16698,0.859899 z m -34.98995,-6.569461 v -6.64761 h 1.58748 1.58749 v 0.919719 0.919726 l 0.41645,-0.529429 c 0.22905,-0.291185 0.87645,-0.767822 1.43867,-1.059188 0.85358,-0.442369 1.28409,-0.530726 2.60969,-0.535594 1.9583,-0.0075 3.21252,0.524427 4.08774,1.732624 1.02473,1.414595 1.19896,2.385314 1.3162,7.33294 l 0.10697,4.51443 h -1.71366 -1.71366 v -3.78164 c 0,-4.404937 -0.1633,-5.298669 -1.1219,-6.140336 -1.18706,-1.042253 -3.15538,-0.770357 -4.30384,0.594506 -0.78419,0.931967 -0.92191,1.783256 -0.92311,5.706007 l -7.5e-4,3.621463 h -1.68671 -1.6867 z M 57.867128,18.960915 C 52.919734,16.927019 52.235154,9.4579839 56.731666,6.5725808 c 1.908715,-1.2248168 4.355641,-1.4759001 6.67539,-0.6849704 1.376323,0.4692643 3.292613,2.3890339 3.79409,3.8009744 0.356825,1.0046712 0.670728,1.3458732 0.670728,0.7290772 0,-0.5872906 1.014158,-2.2972491 1.842332,-3.1063062 1.306866,-1.2767089 2.700169,-1.8330176 4.606837,-1.8393851 2.053793,-0.00675 3.36039,0.445167 4.657348,1.6112517 l 0.998086,0.8973614 v -1.1097825 -1.10979 h 1.389051 1.389058 V 3.8758689 1.9907266 h 1.686701 1.686709 v 1.8851423 1.8851424 h 1.885142 1.885142 v 1.4882674 1.488275 h -1.885142 -1.885142 v 3.2631303 c 0,3.119319 0.0201,3.286523 0.456597,3.793955 0.395052,0.459282 0.649143,0.544601 1.885142,0.633041 l 1.428545,0.102209 v 1.263171 1.263172 h -2.070661 c -2.844168,0 -3.62267,-0.357103 -4.542262,-2.083576 -0.378807,-0.711198 -0.430332,-1.180702 -0.495364,-4.514422 l -0.0726,-3.7206803 h -1.177125 -1.177124 l 0.27761,0.5456964 c 0.733645,1.4421349 0.736368,1.4386629 -1.127407,1.4386629 h -1.680484 l -0.40349,-0.683868 c -0.843091,-1.4289279 -2.968396,-1.9071997 -4.61222,-1.037918 -1.112835,0.588476 -1.968752,2.105033 -1.968752,3.488324 0,1.186057 0.656103,2.486788 1.655516,3.282083 0.669371,0.532661 0.916142,0.606813 2.019422,0.606813 1.432295,0 2.058383,-0.340415 2.857091,-1.553434 l 0.479726,-0.728583 h 1.666834 c 1.635927,0 1.664351,0.0082 1.533012,0.44648 -0.562196,1.875767 -1.707791,3.344317 -3.29436,4.223094 -0.998191,0.552881 -1.197179,0.588986 -3.246173,0.588986 -1.987337,0 -2.273557,-0.04792 -3.196329,-0.534724 -1.272809,-0.671508 -2.721911,-2.26545 -3.172148,-3.489187 -0.409085,-1.111912 -0.676008,-1.473762 -0.676008,-0.916426 0,0.750745 -1.024156,2.451854 -2.009514,3.337778 -1.347816,1.211796 -2.735547,1.703013 -4.794366,1.697066 -1.264551,-0.0038 -1.892754,-0.112867 -2.803991,-0.487482 z m 4.45344,-2.93083 c 2.320192,-1.173525 2.851084,-4.321021 1.062721,-6.3005279 -0.832765,-0.9217738 -1.765023,-1.2692615 -3.0691,-1.1439523 -1.282154,0.1231941 -2.253142,0.8103245 -2.8636,2.0264492 -1.058866,2.109405 -0.263084,4.562976 1.781103,5.491515 1.07391,0.487812 2.023801,0.465215 3.088876,-0.0735 z m 31.472519,3.131686 c -4.261082,-1.518897 -5.493706,-8.15036 -2.193871,-11.802888 1.212382,-1.3419585 2.455416,-1.8773274 4.351366,-1.8741099 1.839445,0.003 2.65466,0.2937055 3.847594,1.3714483 l 0.815654,0.7368925 V 6.6770626 5.7610113 h 1.5875 1.58748 v 6.6476107 6.64761 h -1.58748 -1.5875 v -0.908184 -0.908191 l -0.53759,0.63889 c -0.86168,1.024058 -2.271813,1.571697 -4.026441,1.56371 -0.818544,-0.0038 -1.834068,-0.130034 -2.256712,-0.280686 z m 4.195134,-2.99233 C 100.64737,15.058376 101.24159,11.493733 99.100974,9.4943136 98.07153,8.5327751 96.511098,8.258142 95.196972,8.8072133 c -1.225469,0.5120365 -2.317259,2.2124927 -2.321039,3.6150057 -0.0023,0.847217 0.604263,2.402226 1.135237,2.910408 1.137803,1.088963 2.624758,1.401838 3.977051,0.836814 z m 25.254179,2.846636 c -1.314,-0.504439 -2.88713,-2.010729 -3.58479,-3.432472 -0.42252,-0.861039 -0.48708,-1.267596 -0.48844,-3.075767 -10e-4,-1.881047 0.0524,-2.19333 0.55292,-3.212693 1.83863,-3.7441248 6.6995,-5.0253487 10.30006,-2.7148693 2.88332,1.8502226 3.89577,6.0379173 2.24659,9.2924073 -0.65033,1.283377 -2.17851,2.643567 -3.54406,3.154487 -1.54358,0.577526 -3.96173,0.572636 -5.48228,-0.0111 z m 4.11437,-2.846636 c 2.22442,-0.929423 3.05006,-3.416137 1.87869,-5.658389 -0.41025,-0.7853124 -0.7682,-1.1661073 -1.42026,-1.510925 -3.42335,-1.8103154 -6.81176,1.895935 -4.99237,5.460676 0.88148,1.727103 2.77863,2.442051 4.53394,1.708638 z M 105.3763,12.408622 V 5.7610113 h 1.58749 1.58749 v 0.8142995 0.8142995 l 0.72971,-0.6406832 c 1.34851,-1.184017 3.13402,-1.5964693 5.13998,-1.1873545 1.01205,0.2064136 1.31262,0.3811399 2.16971,1.2613115 1.45901,1.4982949 1.53806,1.857565 1.63292,7.4212749 l 0.082,4.812073 h -1.58325 -1.58325 l -0.0747,-4.216764 c -0.0619,-3.494437 -0.13261,-4.324246 -0.41264,-4.8441652 -0.55079,-1.0226031 -1.25843,-1.4561827 -2.3766,-1.4561827 -1.29957,0 -2.25122,0.4775893 -2.89826,1.4545102 -0.523,0.7896467 -0.5286,0.8362517 -0.59197,4.9298967 l -0.064,4.132705 h -1.67234 -1.67234 z"
       id="path1" /></g></svg>
